<svg width="82" height="82" viewBox="0 0 82 82" fill="none" xmlns="http://www.w3.org/2000/svg">
<circle cx="41" cy="41" r="41" fill="#00FF00"/>
<path d="M35.4587 14.7932C34.7368 12.6832 32.8338 11.5601 31.0151 12.1614L22.7655 14.884C21.1343 15.4285 20 17.2209 20 19.2628C20 47.3284 38.8054 70.0848 61.9981 70.0848C63.6856 70.0848 65.1668 68.7122 65.6167 66.7383L67.8666 56.7554C68.3635 54.5546 67.4354 52.2518 65.6917 51.3783L56.6921 46.8406C55.1641 46.0692 53.3923 46.6024 52.3517 48.1565L48.5644 53.7492C41.9647 49.9716 36.6211 43.5054 33.4994 35.5191L38.1211 30.9474C39.4054 29.6768 39.846 27.5441 39.2085 25.695L35.4587 14.8046V14.7932Z" fill="white"/>
</svg>
